HIERARCHY
ROOT Hips
{
	OFFSET 0.00000 0.00000 0.00000
	CHANNELS 6 Xposition Yposition Zposition Zrotation Yrotation Xrotation 
	JOINT LHipJoint
	{
		OFFSET 0 0 0
		CHANNELS 3 Zrotation Yrotation Xrotation
		JOINT LeftUpLeg
		{
			OFFSET 1.30186 -1.90722 0.65024
			CHANNELS 3 Zrotation Yrotation Xrotation
			JOINT LeftLeg
			{
				OFFSET 2.56413 -7.04489 0.00000
				CHANNELS 3 Zrotation Yrotation Xrotation
				JOINT LeftFoot
				{
					OFFSET 2.79321 -7.67428 0.00000
					CHANNELS 3 Zrotation Yrotation Xrotation
					JOINT LeftToeBase
					{
						OFFSET 0.15723 -0.43198 2.08537
						CHANNELS 3 Zrotation Yrotation Xrotation
						End Site
						{
							OFFSET 0.00000 -0.00000 1.07411
						}
					}
				}
			}
		}
	}
	JOINT RHipJoint
	{
		OFFSET 0 0 0
		CHANNELS 3 Zrotation Yrotation Xrotation
		JOINT RightUpLeg
		{
			OFFSET -1.28627 -1.90723 0.65024
			CHANNELS 3 Zrotation Yrotation Xrotation
			JOINT RightLeg
			{
				OFFSET -2.56567 -7.04913 0.00000
				CHANNELS 3 Zrotation Yrotation Xrotation
				JOINT RightFoot
				{
					OFFSET -2.75597 -7.57198 0.00000
					CHANNELS 3 Zrotation Yrotation Xrotation
					JOINT RightToeBase
					{
						OFFSET -0.17500 -0.48081 2.22901
						CHANNELS 3 Zrotation Yrotation Xrotation
						End Site
						{
							OFFSET -0.00000 -0.00000 1.14762
						}
					}
				}
			}
		}
	}
	JOINT LowerBack
	{
		OFFSET 0 0 0
		CHANNELS 3 Zrotation Yrotation Xrotation
		JOINT Spine
		{
			OFFSET -0.04522 2.07467 -0.16566
			CHANNELS 3 Zrotation Yrotation Xrotation
			JOINT Spine1
			{
				OFFSET -0.01178 2.08825 -0.05393
				CHANNELS 3 Zrotation Yrotation Xrotation
				JOINT Neck
				{
					OFFSET 0 0 0
					CHANNELS 3 Zrotation Yrotation Xrotation
					JOINT Neck1
					{
						OFFSET -0.05182 1.80489 0.16014
						CHANNELS 3 Zrotation Yrotation Xrotation
						JOINT Head
						{
							OFFSET 0.14739 1.78840 -0.33342
							CHANNELS 3 Zrotation Yrotation Xrotation
							End Site
							{
								OFFSET 0.04364 1.83899 -0.13460
							}
						}
					}
				}
				JOINT LeftShoulder
				{
					OFFSET 0 0 0
					CHANNELS 3 Zrotation Yrotation Xrotation
					JOINT LeftArm
					{
						OFFSET 3.01264 1.29090 -0.06579
						CHANNELS 3 Zrotation Yrotation Xrotation
						JOINT LeftForeArm
						{
							OFFSET 5.55680 -0.00000 0.00000
							CHANNELS 3 Zrotation Yrotation Xrotation
							JOINT LeftHand
							{
								OFFSET 3.63979 -0.00000 -0.00000
								CHANNELS 3 Zrotation Yrotation Xrotation
								JOINT LeftFingerBase
								{
									OFFSET 0 0 0
									CHANNELS 3 Zrotation Yrotation Xrotation
									JOINT LeftHandIndex1
									{
										OFFSET 0.56942 -0.00000 -0.00000
										CHANNELS 3 Zrotation Yrotation Xrotation
										End Site
										{
											OFFSET 0.45908 -0.00000 -0.00000
										}
									}
								}
								JOINT LThumb
								{
									OFFSET 0 0 0
									CHANNELS 3 Zrotation Yrotation Xrotation
									End Site
									{
										OFFSET 0.46609 -0.00000 0.46609
									}
								}
							}
						}
					}
				}
				JOINT RightShoulder
				{
					OFFSET 0 0 0
					CHANNELS 3 Zrotation Yrotation Xrotation
					JOINT RightArm
					{
						OFFSET -3.15796 1.37283 -0.36748
						CHANNELS 3 Zrotation Yrotation Xrotation
						JOINT RightForeArm
						{
							OFFSET -5.34339 -0.00000 0.00000
							CHANNELS 3 Zrotation Yrotation Xrotation
							JOINT RightHand
							{
								OFFSET -3.65101 -0.00000 -0.00000
								CHANNELS 3 Zrotation Yrotation Xrotation
								JOINT RightFingerBase
								{
									OFFSET 0 0 0
									CHANNELS 3 Zrotation Yrotation Xrotation
									JOINT RightHandIndex1
									{
										OFFSET -0.69425 -0.00000 -0.00000
										CHANNELS 3 Zrotation Yrotation Xrotation
										End Site
										{
											OFFSET -0.55972 -0.00000 -0.00000
										}
									}
								}
								JOINT RThumb
								{
									OFFSET 0 0 0
									CHANNELS 3 Zrotation Yrotation Xrotation
									End Site
									{
										OFFSET -0.56827 -0.00000 0.56827
									}
								}
							}
						}
					}
				}
			}
		}
	}
}
MOTION
Frames: 8
Frame Time: .0083333
17.3029 18.4190 3.2900 184.4400 3.1359 -172.5380 0.0000 0.0000 0.0000 -10.5725 -18.6676 -29.4901 1.3336 7.3124 20.6442 -0.0274 5.1294 -6.3441 0.7652 -5.5861 -15.5882 0.0000 0.0000 0.0000 28.2581 1.4584 14.2259 -0.5673 -4.8239 13.4070 -0.0370 3.8730 -4.0838 -0.2056 2.9198 -8.0555 2.1828 2.4930 1.4965 0.2251 3.3711 0.7189 -1.0358 1.6984 0.0107 -3.1778 -2.4767 -13.4100 0.2955 -2.7877 9.7559 0.3736 -1.4684 5.1747 -0.0000 -0.0000 0.0000 -90.7990 9.1299 13.2114 12.0850 -19.9320 -2.1312 -0.0000 -0.0000 1.8765 25.4568 22.7443 10.4286 -7.1250 0.0000 -0.0000 -3.8098 54.8448 -0.9222 -0.0000 -0.0000 0.0000 88.0376 -1.9095 16.1792 -18.6035 28.9231 -4.8376 0.0000 0.0000 1.9198 -18.4887 32.1957 -10.1018 7.1250 -0.0000 -0.0000 7.4996 3.3447 7.9915
17.2993 18.4145 3.0943 183.9680 3.1712 -172.6220 0.0000 0.0000 0.0000 -11.1874 -18.9151 -29.1771 1.4062 7.5007 21.2074 -0.0169 4.3681 -5.5378 0.5575 -4.7826 -13.2894 0.0000 0.0000 0.0000 27.7764 1.7466 14.0486 -0.7037 -5.3619 14.9438 -0.0179 3.8828 -3.4290 -0.3159 3.6130 -9.9905 1.4489 2.4998 1.5204 0.2152 3.3688 0.7433 -0.6386 1.6945 -0.0196 -3.3401 -2.5690 -13.6184 0.2745 -2.8715 9.8329 0.3829 -1.5176 5.2368 0.0000 0.0000 0.0000 -90.9601 8.9072 13.3948 11.9623 -19.7481 -2.0896 -0.0000 -0.0000 3.0024 24.7471 22.9098 10.1728 -7.1250 0.0000 -0.0000 -4.6124 54.8758 -1.1205 0.0000 0.0000 0.0000 87.9775 -2.1422 15.7083 -18.3531 28.6069 -4.7171 0.0000 0.0000 2.0743 -18.6732 31.3520 -9.9728 7.1250 -0.0000 -0.0000 7.2900 2.5303 7.6660
17.2915 18.4049 2.8971 183.3050 3.0002 -172.7050 0.0000 0.0000 0.0000 -12.1099 -19.1828 -28.7961 1.4825 7.6928 21.7849 -0.0196 3.9477 -4.7013 0.4568 -4.3359 -12.0235 0.0000 0.0000 0.0000 27.0898 1.9025 13.5688 -0.8954 -6.0310 16.8744 0.0028 3.9766 -2.6674 -0.4581 4.3416 -12.0398 0.7318 2.4750 1.4505 0.0128 3.3217 0.7422 -0.4423 1.6681 -0.0113 -3.2123 -2.6249 -13.6518 0.2004 -2.9600 9.8240 0.3313 -1.5608 5.2379 -0.0000 -0.0000 0.0000 -90.8972 8.6287 13.3436 11.7936 -19.4944 -2.0329 -0.0000 -0.0000 3.9139 24.8710 22.8568 10.2075 -7.1250 0.0000 -0.0000 -4.4643 54.8449 -1.0811 -0.0000 -0.0000 0.0000 88.2122 -2.6021 14.9444 -18.0834 28.2638 -4.5887 0.0000 0.0000 2.5372 -19.2499 31.4139 -10.3158 7.1250 -0.0000 -0.0000 6.9699 2.7031 7.3445
17.2881 18.3988 2.7012 182.6030 2.7276 -172.8790 0.0000 0.0000 0.0000 -13.1857 -19.3248 -28.2748 1.5645 7.8931 22.3900 -0.0220 3.5711 -3.8718 0.5566 -4.7787 -13.2785 0.0000 0.0000 0.0000 26.3951 1.9477 12.9763 -1.1388 -6.7769 19.0562 0.0217 3.9850 -1.7541 -0.5124 4.5881 -12.7375 0.1049 2.3546 1.4286 -0.3243 3.1528 0.7669 -0.4335 1.5827 0.0092 -3.1646 -2.6244 -13.3023 0.5957 -3.0235 9.3509 0.4496 -1.5577 5.0386 -0.0000 0.0000 0.0000 -90.5577 8.3272 13.1280 11.6760 -19.3170 -1.9938 -0.0000 -0.0000 3.5509 25.8551 21.4643 10.0556 -7.1250 0.0000 -0.0000 -3.0132 53.5566 -0.6345 -0.0000 0.0000 0.0000 88.7225 -3.0003 14.1982 -17.7427 27.8264 -4.4285 0.0000 0.0000 3.1754 -19.0400 31.6964 -10.2776 7.1250 -0.0000 -0.0000 7.1249 2.9478 7.5393
17.2948 18.4014 2.5147 182.1110 2.5571 -172.8850 0.0000 0.0000 0.0000 -13.9455 -19.3246 -28.0098 1.6513 8.0985 23.0135 -0.0229 3.3009 -3.2508 0.7655 -5.5870 -15.5907 0.0000 0.0000 0.0000 25.9417 2.2524 12.0991 -1.4219 -7.5407 21.3276 0.0375 3.8548 -0.4578 -0.3859 3.9891 -11.0460 -0.6362 2.1972 1.2945 -0.3854 2.9377 0.8370 -0.0728 1.4736 0.1202 -3.5241 -2.6071 -13.2669 1.1067 -2.9917 9.0065 0.6718 -1.5170 4.9383 -0.0000 0.0000 0.0000 -90.5972 7.7310 12.3147 11.5930 -19.1914 -1.9664 -0.0000 -0.0000 2.9041 26.5285 19.8397 9.6160 -7.1250 0.0000 -0.0000 -1.9074 51.9324 -0.3257 -0.0000 0.0000 0.0000 88.8713 -3.1310 13.7274 -17.4922 27.5021 -4.3122 0.0000 0.0000 3.6559 -18.6782 31.2807 -9.9557 7.1250 -0.0000 -0.0000 7.2784 2.4595 7.6449
17.2971 18.4056 2.3320 181.8310 2.3859 -172.8450 0.0000 0.0000 0.0000 -14.4712 -19.2933 -27.8761 1.7444 8.3120 23.6658 -0.0259 3.2393 -2.8159 1.0231 -6.4345 -18.0504 0.0000 0.0000 0.0000 25.6039 2.4535 10.9960 -1.7378 -8.2972 23.6205 0.0437 3.7169 1.0231 -0.3740 3.9277 -10.8734 -1.1252 2.1190 1.1380 -0.3757 2.8317 0.8631 0.2180 1.4185 0.2109 -3.7095 -2.6695 -13.2895 1.2431 -3.0560 8.9357 0.7388 -1.5452 4.9265 0.0000 0.0000 0.0000 -90.7230 7.1896 11.8254 11.5173 -19.0769 -1.9416 -0.0000 -0.0000 2.7368 26.0711 20.2480 9.6107 -7.1250 0.0000 -0.0000 -2.4721 52.2895 -0.4438 0.0000 0.0000 0.0000 88.9951 -3.3858 13.1382 -17.3351 27.2974 -4.2399 0.0000 0.0000 3.9873 -19.2929 31.1883 -10.2748 7.1250 -0.0000 -0.0000 6.9170 2.4834 7.2624
17.2907 18.3996 2.1433 181.7420 2.2356 -173.0740 0.0000 0.0000 0.0000 -14.9230 -19.0954 -27.4101 1.8402 8.5249 24.3200 -0.0221 2.9512 -2.4861 0.9988 -6.3600 -17.8326 0.0000 0.0000 0.0000 25.3799 2.3971 10.1237 -2.0804 -9.0316 25.8942 0.0373 3.6353 2.6250 -0.5155 4.6017 -12.7760 -1.1243 2.2072 1.2449 -0.5191 2.9479 0.8039 0.0638 1.4781 0.0967 -3.5740 -2.8352 -12.8426 1.2884 -3.3268 8.9664 0.7144 -1.6722 4.8678 -0.0000 0.0000 0.0000 -90.3711 7.0267 12.5039 11.3954 -18.8917 -1.9020 -0.0000 -0.0000 2.8484 26.0929 21.0028 9.9557 -7.1250 0.0000 -0.0000 -2.6418 53.1069 -0.5272 -0.0000 0.0000 0.0000 89.4629 -4.0385 12.1943 -17.1103 27.0030 -4.1373 0.0000 0.0000 4.2107 -19.4782 31.1150 -10.3578 7.1250 -0.0000 -0.0000 6.8020 2.4450 7.1357
17.2797 18.3944 1.9561 181.7440 2.2729 -173.2120 0.0000 0.0000 0.0000 -15.2439 -18.7419 -27.0663 1.9371 8.7338 24.9662 -0.0139 2.4456 -2.2417 0.6791 -5.2693 -14.6782 0.0000 0.0000 0.0000 25.2064 2.6295 9.2317 -2.4432 -9.7339 28.1193 0.0097 3.7038 4.8216 -0.5793 4.8739 -13.5494 -1.0212 2.3840 1.3218 -0.6485 3.1807 0.6556 -0.1364 1.5955 -0.0873 -3.4663 -2.9967 -12.2394 1.4310 -3.6033 8.9528 0.7274 -1.7979 4.7719 0.0000 -0.0000 0.0000 -89.9559 6.8408 13.5398 11.1548 -18.5251 -1.8248 -0.0000 -0.0000 3.1631 27.6046 21.5398 10.8673 -7.1250 0.0000 -0.0000 -1.2005 53.9848 -0.2652 0.0000 -0.0000 0.0000 89.8822 -4.7153 11.3382 -16.7989 26.5919 -3.9969 0.0000 0.0000 4.2204 -19.0317 30.9288 -10.0537 7.1250 -0.0000 -0.0000 7.0336 2.1712 7.3498
